<svg width="146" height="88" viewBox="0 0 146 88" fill="none" xmlns="http://www.w3.org/2000/svg">
<path d="M5.504 72V25.92H23.808C27.0933 25.92 29.888 26.4533 32.192 27.52C34.496 28.5867 36.2453 30.1227 37.44 32.128C38.6773 34.1333 39.296 36.544 39.296 39.36C39.296 42.176 38.6773 44.608 37.44 46.656C36.2453 48.6613 34.496 50.2187 32.192 51.328C29.888 52.4373 27.0933 52.992 23.808 52.992H9.344V48.384H23.616C27.0293 48.384 29.6107 47.616 31.36 46.08C33.152 44.5013 34.048 42.2613 34.048 39.36C34.048 36.4587 33.1733 34.2613 31.424 32.768C29.6747 31.2747 27.072 30.528 23.616 30.528H10.752V72H5.504ZM54.2705 72.64C51.0705 72.64 48.2545 71.8933 45.8225 70.4C43.3905 68.9067 41.4918 66.88 40.1265 64.32C38.8038 61.7173 38.1425 58.7947 38.1425 55.552C38.1425 52.2667 38.8252 49.3653 40.1905 46.848C41.5558 44.3307 43.4332 42.3467 45.8225 40.896C48.2545 39.4453 51.0705 38.72 54.2705 38.72C57.5132 38.72 60.3292 39.4453 62.7185 40.896C65.1505 42.3467 67.0278 44.3307 68.3505 46.848C69.7158 49.3653 70.3985 52.2667 70.3985 55.552C70.3985 58.7947 69.7158 61.7173 68.3505 64.32C67.0278 66.88 65.1505 68.9067 62.7185 70.4C60.3292 71.8933 57.5132 72.64 54.2705 72.64ZM54.2705 68.288C56.4892 68.288 58.4092 67.7547 60.0305 66.688C61.6518 65.5787 62.9105 64.064 63.8065 62.144C64.7025 60.224 65.1505 58.0053 65.1505 55.488C65.1505 51.7333 64.1478 48.7253 62.1425 46.464C60.1798 44.2027 57.5558 43.072 54.2705 43.072C51.0278 43.072 48.4038 44.2027 46.3985 46.464C44.3932 48.7253 43.3905 51.7333 43.3905 55.488C43.3905 58.0053 43.8385 60.224 44.7345 62.144C45.6305 64.064 46.8892 65.5787 48.5105 66.688C50.1745 67.7547 52.0945 68.288 54.2705 68.288ZM73.5975 72V25.92H78.7175V72H73.5975ZM87.3085 85.12L94.6045 68.16L95.7565 66.368L106.444 39.36H111.692L92.7485 85.12H87.3085ZM95.1805 72.32L80.5245 39.36H86.1565L98.7645 68.864L95.1805 72.32Z" fill="white"/>
<path d="M121.304 62.64C116.483 62.64 112.344 61.616 108.888 59.568C105.432 57.52 102.787 54.704 100.952 51.12C99.1173 47.4933 98.2 43.376 98.2 38.768C98.2 34.2027 99.1387 30.1493 101.016 26.608C102.893 23.0667 105.475 20.2933 108.76 18.288C112.088 16.2827 115.864 15.28 120.088 15.28C124.397 15.28 128.195 16.2827 131.48 18.288C134.808 20.2933 137.411 23.0667 139.288 26.608C141.165 30.1493 142.104 34.224 142.104 38.832C142.104 42.2453 141.528 45.424 140.376 48.368C139.224 51.2693 137.539 53.7013 135.32 55.664C133.101 57.6267 130.349 58.9493 127.064 59.632L121.304 62.64ZM120.088 58.16C123.459 58.16 126.381 57.328 128.856 55.664C131.331 53.9573 133.251 51.632 134.616 48.688C136.024 45.744 136.728 42.416 136.728 38.704C136.728 35.0347 136.024 31.792 134.616 28.976C133.251 26.16 131.309 23.9627 128.792 22.384C126.317 20.8053 123.416 20.016 120.088 20.016C116.76 20.016 113.859 20.8053 111.384 22.384C108.909 23.9627 106.989 26.16 105.624 28.976C104.259 31.7493 103.576 34.992 103.576 38.704C103.576 42.4587 104.259 45.808 105.624 48.752C107.032 51.6533 108.973 53.9573 111.448 55.664C113.923 57.328 116.803 58.16 120.088 58.16ZM121.304 62.64L120.152 59.184L143.832 57.392V62C141.229 62 139.032 62.0213 137.24 62.064C135.491 62.1493 133.869 62.2347 132.376 62.32C130.883 62.4053 129.283 62.4693 127.576 62.512C125.869 62.5973 123.779 62.64 121.304 62.64Z" fill="white"/>
</svg>
